<?xml version="1.0" standalone="no"?>
        <!DOCTYPE svg PUBLIC "-//W3C//DTD SVG 1.1//EN" 
        "http://www.w3.org/Graphics/SVG/1.1/DTD/svg11.dtd"> <svg style="color: white" xmlns="http://www.w3.org/2000/svg" viewBox="0 0 512 512"> <path fill="white" d="M136,488H495.985V24H16V488H136ZM408,56h55.985V96H408Zm0,72h55.985v40H408Zm0,72h55.985v40H408Zm0,72h55.985v40H408Zm0,72h55.985v40H408Zm0,72h55.985v40H408ZM136,200V56H375.985V240H136Zm0,216V272H375.985V456H136ZM48,56h56V96H48Zm0,72h56v40H48Zm0,72h56v40H48Zm0,72h56v40H48Zm0,72h56v40H48Zm0,72h56v40H48Z" class="ci-primary"></path> </svg>  